<svg width="24" height="26" viewBox="0 0 24 26" fill="none" xmlns="http://www.w3.org/2000/svg">
<path fill-rule="evenodd" clip-rule="evenodd" d="M17.9987 20.5006C17.7303 20.5098 17.4627 20.4648 17.212 20.3684C16.9613 20.2721 16.7325 20.1262 16.5393 19.9395C16.3462 19.7529 16.1926 19.5292 16.0877 19.282C15.9827 19.0347 15.9287 18.7688 15.9287 18.5002C15.9287 18.2316 15.9827 17.9657 16.0877 17.7184C16.1926 17.4712 16.3462 17.2475 16.5393 17.0609C16.7325 16.8742 16.9613 16.7283 17.212 16.6319C17.4627 16.5356 17.7303 16.4906 17.9987 16.4998C18.5174 16.5176 19.0089 16.7361 19.3696 17.1093C19.7302 17.4825 19.9318 17.9812 19.9318 18.5002C19.9318 19.0192 19.7302 19.5179 19.3696 19.8911C19.0089 20.2643 18.5174 20.4828 17.9987 20.5006ZM5.99873 14.5006C5.73027 14.5098 5.46271 14.4648 5.21199 14.3684C4.96126 14.2721 4.73251 14.1262 4.53935 13.9395C4.34619 13.7529 4.19258 13.5292 4.08766 13.282C3.98275 13.0347 3.92868 12.7688 3.92868 12.5002C3.92868 12.2316 3.98275 11.9657 4.08766 11.7184C4.19258 11.4712 4.34619 11.2475 4.53935 11.0609C4.73251 10.8742 4.96126 10.7283 5.21199 10.6319C5.46271 10.5356 5.73027 10.4906 5.99873 10.4998C6.51741 10.5176 7.00892 10.7361 7.36957 11.1093C7.73022 11.4825 7.93181 11.9812 7.93181 12.5002C7.93181 13.0192 7.73022 13.5179 7.36957 13.8911C7.00892 14.2643 6.51741 14.4828 5.99873 14.5006ZM17.9987 4.50215C18.2672 4.49296 18.5347 4.5379 18.7855 4.63429C19.0362 4.73068 19.2649 4.87655 19.4581 5.06321C19.6513 5.24987 19.8049 5.47351 19.9098 5.72078C20.0147 5.96806 20.0688 6.23393 20.0688 6.50254C20.0688 6.77115 20.0147 7.03702 19.9098 7.2843C19.8049 7.53158 19.6513 7.75521 19.4581 7.94187C19.2649 8.12853 19.0362 8.2744 18.7855 8.37079C18.5347 8.46718 18.2672 8.51212 17.9987 8.50293C17.48 8.48517 16.9885 8.26664 16.6279 7.89344C16.2672 7.52023 16.0656 7.02153 16.0656 6.50254C16.0656 5.98355 16.2672 5.48485 16.6279 5.11165C16.9885 4.73844 17.48 4.51991 17.9987 4.50215ZM17.9987 14.5006C16.7706 14.5006 15.6854 15.0654 14.9519 15.9373L9.94326 13.0475C9.96669 12.867 9.99951 12.6889 9.99951 12.5014C9.99951 12.3889 9.97607 12.2834 9.96669 12.1732L15.0808 9.22012C15.4521 9.62411 15.903 9.94681 16.4052 10.1679C16.9075 10.3889 17.45 10.5035 17.9987 10.5045C18.7899 10.5045 19.5633 10.2699 20.2212 9.8304C20.8791 9.39089 21.3919 8.7662 21.6947 8.03529C21.9976 7.30438 22.077 6.50007 21.9228 5.72406C21.7686 4.94805 21.3878 4.23517 20.8285 3.67556C20.2692 3.11595 19.5566 2.73473 18.7807 2.58009C18.0048 2.42546 17.2004 2.50435 16.4693 2.8068C15.7382 3.10925 15.1132 3.62168 14.6733 4.27929C14.2334 4.93691 13.9984 5.71019 13.9979 6.50137C13.9979 6.83418 14.0519 7.15293 14.1269 7.46231L9.30341 10.2514C8.9151 9.68131 8.386 9.22132 7.76747 8.91606C7.14895 8.6108 6.46201 8.47064 5.77333 8.50918C5.08466 8.54772 4.41765 8.76365 3.83704 9.13602C3.25644 9.50838 2.78196 10.0245 2.45968 10.6344C2.13739 11.2442 1.97825 11.927 1.99768 12.6165C2.01712 13.3059 2.21448 13.9787 2.57061 14.5694C2.92674 15.1601 3.42954 15.6487 4.0302 15.9877C4.63086 16.3268 5.30897 16.5048 5.99873 16.5045C7.29951 16.5022 8.44091 15.8717 9.17216 14.9107L14.0753 17.742C13.9184 18.551 14.0152 19.3888 14.3524 20.1408C14.6896 20.8927 15.2508 21.5222 15.9593 21.9432C16.6678 22.3641 17.489 22.556 18.3107 22.4926C19.1324 22.4292 19.9144 22.1136 20.55 21.5889C21.1855 21.0643 21.6435 20.3561 21.8613 19.5613C22.0792 18.7665 22.0463 17.9238 21.7671 17.1484C21.488 16.373 20.9761 15.7028 20.3016 15.2293C19.6271 14.7557 18.8228 14.5021 17.9987 14.5029V14.5006Z" fill="white"/>
</svg>
